<?xml version="1.0" encoding="UTF-8"?>
<svg width="800" height="600" viewBox="0 0 800 600" fill="none" xmlns="http://www.w3.org/2000/svg">
    <!-- Background Shape -->
    <path d="M100 100C100 50 150 0 200 0H700C750 0 800 50 800 100V500C800 550 750 600 700 600H200C150 600 100 550 100 500V100Z" fill="#EBF8FF"/>
    
    <!-- Analytics Graph -->
    <path d="M150 400L250 300L350 350L450 200L550 250" stroke="#2B6CB0" stroke-width="4"/>
    <circle cx="250" cy="300" r="8" fill="#4299E1"/>
    <circle cx="350" cy="350" r="8" fill="#4299E1"/>
    <circle cx="450" cy="200" r="8" fill="#4299E1"/>
    
    <!-- Email Icons -->
    <rect x="600" y="150" width="60" height="40" rx="5" fill="#2B6CB0"/>
    <rect x="620" y="200" width="60" height="40" rx="5" fill="#4299E1"/>
    <rect x="640" y="250" width="60" height="40" rx="5" fill="#63B3ED"/>
    
    <!-- Time Indicators -->
    <text x="150" y="450" font-family="Arial" font-size="14" fill="#2D3748">10:00 AM GMT</text>
    <text x="300" y="450" font-family="Arial" font-size="14" fill="#2D3748">1:15 PM CET</text>
    <text x="450" y="450" font-family="Arial" font-size="14" fill="#2D3748">3:30 PM PDT</text>
    
    <!-- Bot Detection Icon -->
    <circle cx="700" cy="350" r="30" fill="#2B6CB0"/>
    <path d="M685 350L695 360L715 340" stroke="white" stroke-width="3"/>
</svg> 